<?xml version="1.0" encoding="UTF-8" standalone="no"?>
<!-- Created with Inkscape (http://www.inkscape.org/) -->

<svg
   xmlns:dc="http://purl.org/dc/elements/1.1/"
   xmlns:cc="http://creativecommons.org/ns#"
   xmlns:rdf="http://www.w3.org/1999/02/22-rdf-syntax-ns#"
   xmlns:svg="http://www.w3.org/2000/svg"
   xmlns="http://www.w3.org/2000/svg"
   xmlns:xlink="http://www.w3.org/1999/xlink"
   xmlns:sodipodi="http://sodipodi.sourceforge.net/DTD/sodipodi-0.dtd"
   xmlns:inkscape="http://www.inkscape.org/namespaces/inkscape"
   width="40"
   height="40"
   viewBox="0 0 40 40.000001"
   id="svg2"
   version="1.1"
   inkscape:version="0.91 r13725"
   sodipodi:docname="settings.svg">
  <sodipodi:namedview
     id="base"
     pagecolor="#ffffff"
     bordercolor="#666666"
     borderopacity="1.0"
     inkscape:pageopacity="0.0"
     inkscape:pageshadow="2"
     inkscape:zoom="22.627417"
     inkscape:cx="9.6775308"
     inkscape:cy="20.599063"
     inkscape:document-units="px"
     inkscape:current-layer="layer1"
     showgrid="false"
     units="px"
     showguides="false"
     inkscape:window-width="1920"
     inkscape:window-height="1018"
     inkscape:window-x="-8"
     inkscape:window-y="-8"
     inkscape:window-maximized="1" />
  <defs
     id="defs4">
    <linearGradient
       inkscape:collect="always"
       id="linearGradient4186">
      <stop
         style="stop-color:#666666;stop-opacity:1;"
         offset="0"
         id="stop4188" />
      <stop
         style="stop-color:#e6e6e6;stop-opacity:1"
         offset="1"
         id="stop4190" />
    </linearGradient>
    <linearGradient
       inkscape:collect="always"
       xlink:href="#linearGradient4186"
       id="linearGradient4192"
       x1="20.613947"
       y1="1031.2217"
       x2="13.607752"
       y2="1017.7372"
       gradientUnits="userSpaceOnUse" />
  </defs>
  <metadata
     id="metadata7">
    <rdf:RDF>
      <cc:Work
         rdf:about="">
        <dc:format>image/svg+xml</dc:format>
        <dc:type
           rdf:resource="http://purl.org/dc/dcmitype/StillImage" />
        <dc:title />
      </cc:Work>
    </rdf:RDF>
  </metadata>
  <g
     transform="translate(0,-1012.3622)"
     id="layer1"
     inkscape:groupmode="layer"
     inkscape:label="Layer 1">
    <g
       id="g4916"
       transform="matrix(1.116022,-0.29987297,0.29150167,1.1480718,-304.00203,-146.08472)"
       style="stroke:#000000;stroke-opacity:1">
      <path
         id="path4918"
         d="m 34.323262,1022.1585 c -2.407813,-0.8228 -5.017707,0.4347 -5.830372,2.8091 -0.1514,0.4489 -0.230725,0.919 -0.235104,1.3934 0,0 -16.437912,8.2511 -16.437912,8.2511 -0.215569,-0.1158 -0.439975,-0.2145 -0.671089,-0.2951 -2.4082003,-0.824 -5.0193247,0.4333 -5.8322202,2.8085 -0.1245065,0.3716 -0.1997712,0.758 -0.2239217,1.1495 0,0 3.9452708,-2.0172 3.9452708,-2.0172 0.9422941,1.0935 2.1126581,1.5199 2.3538101,4.6632 0,0 -3.5849776,1.8329 -3.5849776,1.8329 0.1308359,0.061 0.2644221,0.1151 0.4003177,0.1633 2.4078139,0.8228 5.0177089,-0.4347 5.8303739,-2.8091 0.07618,-0.2249 0.134362,-0.4556 0.174026,-0.6898 0,0 17.219816,-8.6421 17.219816,-8.6421 1.496379,0.4931 3.137262,0.198 4.350671,-0.7824 0,0 -4.184074,-1.4185 -4.184074,-1.4185 0.06194,-1.3439 -0.505385,-2.4253 1.495344,-4.5769 0,0 4.228426,1.4337 4.228426,1.4337 -0.369148,-1.5234 -1.501265,-2.7594 -2.998416,-3.2735 0,0 3.1e-5,-10e-5 3.1e-5,-10e-5"
         style="opacity:1;fill:#666666;fill-opacity:1;fill-rule:evenodd;stroke:#000000;stroke-width:0.08250017;stroke-linecap:butt;stroke-linejoin:miter;stroke-miterlimit:4;stroke-dasharray:none;stroke-dashoffset:0;stroke-opacity:1"
         inkscape:connector-curvature="0" />
      <path
         id="path4920"
         d="m 34.305182,1022.1451 c -2.407814,-0.8228 -5.017707,0.4347 -5.830372,2.8091 -0.1514,0.4489 -0.230726,0.9191 -0.235104,1.3934 0,0 -16.437912,8.2511 -16.437912,8.2511 -0.215569,-0.1158 -0.439976,-0.2144 -0.671089,-0.2951 -2.4082004,-0.824 -5.0193249,0.4334 -5.8322203,2.8085 -0.1245065,0.3716 -0.1997712,0.758 -0.2239217,1.1495 0,0 3.9452708,-2.0172 3.9452708,-2.0172 0.9422941,1.0935 2.1126582,1.5199 2.3538102,4.6632 0,0 -3.5849777,1.8329 -3.5849777,1.8329 0.1308359,0.061 0.2644221,0.1151 0.4003177,0.1633 2.407814,0.8228 5.017709,-0.4346 5.830374,-2.8091 0.07617,-0.2249 0.134361,-0.4556 0.174026,-0.6898 0,0 17.219816,-8.6421 17.219816,-8.6421 1.496379,0.4931 3.137262,0.198 4.350671,-0.7824 0,0 -4.184074,-1.4185 -4.184074,-1.4185 0.06194,-1.3439 -0.505385,-2.4253 1.495344,-4.5769 0,0 4.228426,1.4337 4.228426,1.4337 -0.369148,-1.5234 -1.501265,-2.7593 -2.998416,-3.2735 0,0 3.1e-5,-1e-4 3.1e-5,-1e-4"
         style="opacity:1;fill:#666666;fill-opacity:1;fill-rule:evenodd;stroke:#000000;stroke-width:0.08250017;stroke-linecap:butt;stroke-linejoin:miter;stroke-miterlimit:4;stroke-dasharray:none;stroke-dashoffset:0;stroke-opacity:1"
         inkscape:connector-curvature="0" />
      <path
         id="path4922"
         d="m 34.287102,1022.1317 c -2.407814,-0.8228 -5.017707,0.4347 -5.830372,2.8091 -0.1514,0.4489 -0.230726,0.9191 -0.235104,1.3934 0,0 -16.437912,8.2511 -16.437912,8.2511 -0.215569,-0.1157 -0.439976,-0.2144 -0.671089,-0.2951 -2.4082005,-0.824 -5.019325,0.4334 -5.8322205,2.8085 -0.1245065,0.3716 -0.1997712,0.758 -0.2239217,1.1495 0,0 3.9452708,-2.0172 3.9452708,-2.0172 0.9422941,1.0935 2.1126584,1.5199 2.3538104,4.6632 0,0 -3.5849779,1.8329 -3.5849779,1.8329 0.1308359,0.061 0.2644221,0.1151 0.4003177,0.1633 2.4078142,0.8228 5.0177082,-0.4346 5.8303742,-2.8091 0.07617,-0.2249 0.134361,-0.4555 0.174026,-0.6898 0,0 17.219816,-8.6421 17.219816,-8.6421 1.496378,0.4931 3.137262,0.198 4.350671,-0.7824 0,0 -4.184074,-1.4185 -4.184074,-1.4185 0.06194,-1.3439 -0.505385,-2.4253 1.495344,-4.5769 0,0 4.228426,1.4337 4.228426,1.4337 -0.369148,-1.5233 -1.501265,-2.7593 -2.998416,-3.2735 0,0 3.1e-5,-10e-5 3.1e-5,-10e-5"
         style="opacity:1;fill:#666666;fill-opacity:1;fill-rule:evenodd;stroke:#000000;stroke-width:0.08250017;stroke-linecap:butt;stroke-linejoin:miter;stroke-miterlimit:4;stroke-dasharray:none;stroke-dashoffset:0;stroke-opacity:1"
         inkscape:connector-curvature="0" />
      <path
         id="path4924"
         d="m 34.269022,1022.1184 c -2.407814,-0.8228 -5.017707,0.4346 -5.830372,2.8091 -0.1514,0.4488 -0.230726,0.919 -0.235104,1.3934 0,0 -16.437912,8.2511 -16.437912,8.2511 -0.21557,-0.1158 -0.439976,-0.2145 -0.671089,-0.2951 -2.4082007,-0.8241 -5.0193251,0.4333 -5.8322206,2.8085 -0.1245065,0.3716 -0.1997712,0.7579 -0.2239217,1.1495 0,0 3.9452708,-2.0172 3.9452708,-2.0172 0.9422941,1.0935 2.1126585,1.5199 2.3538105,4.6632 0,0 -3.584978,1.8329 -3.584978,1.8329 0.1308359,0.061 0.2644221,0.115 0.4003177,0.1633 2.4078143,0.8228 5.0177083,-0.4347 5.8303743,-2.8091 0.07617,-0.225 0.134361,-0.4556 0.174026,-0.6898 0,0 17.219816,-8.6421 17.219816,-8.6421 1.496378,0.493 3.137262,0.1979 4.350671,-0.7824 0,0 -4.184074,-1.4185 -4.184074,-1.4185 0.06194,-1.3439 -0.505385,-2.4253 1.495344,-4.5769 0,0 4.228426,1.4337 4.228426,1.4337 -0.369148,-1.5234 -1.501265,-2.7594 -2.998416,-3.2735 0,0 3.1e-5,-1e-4 3.1e-5,-1e-4"
         style="opacity:1;fill:#666666;fill-opacity:1;fill-rule:evenodd;stroke:#000000;stroke-width:0.08250017;stroke-linecap:butt;stroke-linejoin:miter;stroke-miterlimit:4;stroke-dasharray:none;stroke-dashoffset:0;stroke-opacity:1"
         inkscape:connector-curvature="0" />
      <path
         id="path4926"
         d="m 34.250941,1022.105 c -2.407813,-0.8228 -5.017706,0.4346 -5.830372,2.8091 -0.151399,0.4489 -0.230725,0.919 -0.235104,1.3934 0,0 -16.437912,8.2511 -16.437912,8.2511 -0.215569,-0.1158 -0.439975,-0.2145 -0.671089,-0.2951 -2.4081998,-0.8241 -5.0193243,0.4333 -5.8322197,2.8085 -0.1245065,0.3716 -0.1997712,0.7579 -0.2239217,1.1495 0,0 3.9452708,-2.0172 3.9452708,-2.0172 0.9422941,1.0935 2.1126576,1.5199 2.3538096,4.6632 0,0 -3.5849771,1.8329 -3.5849771,1.8329 0.1308359,0.061 0.2644221,0.115 0.4003177,0.1633 2.4078144,0.8228 5.0177084,-0.4347 5.8303734,-2.8091 0.07618,-0.225 0.134362,-0.4556 0.174026,-0.6898 0,0 17.219816,-8.6421 17.219816,-8.6421 1.496379,0.493 3.137262,0.198 4.350671,-0.7824 0,0 -4.184074,-1.4185 -4.184074,-1.4185 0.06194,-1.3439 -0.505385,-2.4253 1.495344,-4.5769 0,0 4.228426,1.4337 4.228426,1.4337 -0.369147,-1.5234 -1.501264,-2.7594 -2.998416,-3.2735 0,0 3.1e-5,-10e-5 3.1e-5,-10e-5"
         style="opacity:1;fill:#666666;fill-opacity:1;fill-rule:evenodd;stroke:#000000;stroke-width:0.08250017;stroke-linecap:butt;stroke-linejoin:miter;stroke-miterlimit:4;stroke-dasharray:none;stroke-dashoffset:0;stroke-opacity:1"
         inkscape:connector-curvature="0" />
      <path
         id="path4928"
         d="m 34.232861,1022.0916 c -2.407813,-0.8228 -5.017706,0.4346 -5.830372,2.8091 -0.1514,0.4489 -0.230725,0.919 -0.235104,1.3934 0,0 -16.437912,8.2511 -16.437912,8.2511 -0.215569,-0.1158 -0.439975,-0.2145 -0.671089,-0.2951 -2.4082,-0.8241 -5.0193244,0.4333 -5.8322199,2.8085 -0.1245065,0.3716 -0.1997712,0.758 -0.2239217,1.1495 0,0 3.9452708,-2.0172 3.9452708,-2.0172 0.9422941,1.0935 2.1126578,1.5199 2.3538098,4.6632 0,0 -3.5849773,1.8329 -3.5849773,1.8329 0.1308359,0.061 0.2644221,0.1151 0.4003177,0.1633 2.4078136,0.8228 5.0177086,-0.4347 5.8303736,-2.8091 0.07617,-0.2249 0.134362,-0.4556 0.174026,-0.6898 0,0 17.219816,-8.6421 17.219816,-8.6421 1.496379,0.4931 3.137262,0.198 4.350671,-0.7824 0,0 -4.184074,-1.4185 -4.184074,-1.4185 0.06194,-1.3439 -0.505385,-2.4253 1.495344,-4.5769 0,0 4.228426,1.4337 4.228426,1.4337 -0.369147,-1.5234 -1.501265,-2.7594 -2.998416,-3.2735 0,0 3.1e-5,-10e-5 3.1e-5,-10e-5"
         style="opacity:1;fill:#666666;fill-opacity:1;fill-rule:evenodd;stroke:#000000;stroke-width:0.08250017;stroke-linecap:butt;stroke-linejoin:miter;stroke-miterlimit:4;stroke-dasharray:none;stroke-dashoffset:0;stroke-opacity:1"
         inkscape:connector-curvature="0" />
      <path
         id="path4930"
         d="m 34.214781,1022.0782 c -2.407813,-0.8228 -5.017707,0.4347 -5.830372,2.8091 -0.1514,0.4489 -0.230725,0.919 -0.235104,1.3934 0,0 -16.437912,8.2511 -16.437912,8.2511 -0.215569,-0.1158 -0.439975,-0.2144 -0.671089,-0.2951 -2.4082001,-0.824 -5.0193245,0.4333 -5.83222,2.8085 -0.1245065,0.3716 -0.1997712,0.758 -0.2239217,1.1495 0,0 3.9452708,-2.0172 3.9452708,-2.0172 0.9422941,1.0935 2.1126579,1.5199 2.3538099,4.6632 0,0 -3.5849774,1.8329 -3.5849774,1.8329 0.1308359,0.061 0.2644221,0.1151 0.4003177,0.1633 2.4078137,0.8228 5.0177087,-0.4347 5.8303737,-2.8091 0.07617,-0.2249 0.134362,-0.4556 0.174026,-0.6898 0,0 17.219816,-8.6421 17.219816,-8.6421 1.496379,0.4931 3.137262,0.198 4.350671,-0.7824 0,0 -4.184074,-1.4185 -4.184074,-1.4185 0.06194,-1.3439 -0.505385,-2.4253 1.495344,-4.5769 0,0 4.228426,1.4337 4.228426,1.4337 -0.369148,-1.5234 -1.501265,-2.7593 -2.998416,-3.2735 0,0 3.1e-5,-10e-5 3.1e-5,-10e-5"
         style="opacity:1;fill:#666666;fill-opacity:1;fill-rule:evenodd;stroke:#000000;stroke-width:0.08250017;stroke-linecap:butt;stroke-linejoin:miter;stroke-miterlimit:4;stroke-dasharray:none;stroke-dashoffset:0;stroke-opacity:1"
         inkscape:connector-curvature="0" />
      <path
         id="path4932"
         d="m 34.196701,1022.0648 c -2.407814,-0.8228 -5.017707,0.4347 -5.830372,2.8091 -0.1514,0.4489 -0.230725,0.9191 -0.235104,1.3934 0,0 -16.437912,8.2511 -16.437912,8.2511 -0.215569,-0.1157 -0.439975,-0.2144 -0.671089,-0.2951 -2.4082002,-0.824 -5.0193246,0.4334 -5.8322201,2.8085 -0.1245065,0.3716 -0.1997712,0.758 -0.2239217,1.1495 0,0 3.9452708,-2.0172 3.9452708,-2.0172 0.9422941,1.0935 2.112658,1.5199 2.35381,4.6632 0,0 -3.5849775,1.8329 -3.5849775,1.8329 0.1308359,0.061 0.2644221,0.1151 0.4003177,0.1633 2.4078138,0.8228 5.0177088,-0.4346 5.8303738,-2.8091 0.07618,-0.2249 0.134361,-0.4555 0.174026,-0.6898 0,0 17.219816,-8.6421 17.219816,-8.6421 1.496379,0.4931 3.137262,0.198 4.350671,-0.7824 0,0 -4.184074,-1.4185 -4.184074,-1.4185 0.06194,-1.3439 -0.505385,-2.4253 1.495344,-4.5769 0,0 4.228426,1.4337 4.228426,1.4337 -0.369148,-1.5233 -1.501265,-2.7593 -2.998416,-3.2735 0,0 3.1e-5,-10e-5 3.1e-5,-10e-5"
         style="opacity:1;fill:#666666;fill-opacity:1;fill-rule:evenodd;stroke:#000000;stroke-width:0.08250017;stroke-linecap:butt;stroke-linejoin:miter;stroke-miterlimit:4;stroke-dasharray:none;stroke-dashoffset:0;stroke-opacity:1"
         inkscape:connector-curvature="0" />
      <path
         id="path4934"
         d="m 34.178621,1022.0514 c -2.407814,-0.8228 -5.017707,0.4347 -5.830372,2.8091 -0.1514,0.4489 -0.230726,0.9191 -0.235104,1.3934 0,0 -16.437912,8.2511 -16.437912,8.2511 -0.215569,-0.1157 -0.439975,-0.2144 -0.671089,-0.2951 -2.4082004,-0.824 -5.0193248,0.4334 -5.8322203,2.8085 -0.1245065,0.3716 -0.1997712,0.758 -0.2239217,1.1495 0,0 3.9452708,-2.0172 3.9452708,-2.0172 0.9422941,1.0935 2.1126582,1.5199 2.3538102,4.6632 0,0 -3.5849777,1.8329 -3.5849777,1.8329 0.1308359,0.061 0.2644221,0.1151 0.4003177,0.1633 2.407814,0.8228 5.017708,-0.4346 5.830374,-2.8091 0.07618,-0.2249 0.134361,-0.4555 0.174026,-0.6898 0,0 17.219816,-8.6421 17.219816,-8.6421 1.496379,0.4931 3.137262,0.198 4.350671,-0.7824 0,0 -4.184074,-1.4185 -4.184074,-1.4185 0.06194,-1.3439 -0.505385,-2.4253 1.495344,-4.5769 0,0 4.228426,1.4337 4.228426,1.4337 -0.369148,-1.5233 -1.501265,-2.7593 -2.998416,-3.2735 0,0 3.1e-5,-1e-4 3.1e-5,-1e-4"
         style="opacity:1;fill:#666666;fill-opacity:1;fill-rule:evenodd;stroke:#000000;stroke-width:0.08250017;stroke-linecap:butt;stroke-linejoin:miter;stroke-miterlimit:4;stroke-dasharray:none;stroke-dashoffset:0;stroke-opacity:1"
         inkscape:connector-curvature="0" />
      <path
         id="path4936"
         d="m 34.160541,1022.0381 c -2.407814,-0.8228 -5.017707,0.4346 -5.830372,2.8091 -0.1514,0.4489 -0.230726,0.919 -0.235104,1.3934 0,0 -16.437912,8.2511 -16.437912,8.2511 -0.215569,-0.1158 -0.439976,-0.2145 -0.671089,-0.2951 -2.4082005,-0.8241 -5.0193249,0.4333 -5.8322204,2.8085 -0.1245065,0.3716 -0.1997712,0.7579 -0.2239217,1.1495 0,0 3.9452708,-2.0172 3.9452708,-2.0172 0.9422941,1.0935 2.1126583,1.5199 2.3538103,4.6632 0,0 -3.5849778,1.8329 -3.5849778,1.8329 0.1308359,0.061 0.2644221,0.115 0.4003177,0.1633 2.4078141,0.8228 5.0177081,-0.4347 5.8303741,-2.8091 0.07617,-0.225 0.134361,-0.4556 0.174026,-0.6898 0,0 17.219816,-8.6421 17.219816,-8.6421 1.496378,0.493 3.137262,0.1979 4.350671,-0.7824 0,0 -4.184074,-1.4185 -4.184074,-1.4185 0.06194,-1.3439 -0.505385,-2.4253 1.495344,-4.5769 0,0 4.228426,1.4337 4.228426,1.4337 -0.369148,-1.5234 -1.501265,-2.7594 -2.998416,-3.2735 0,0 3.1e-5,-10e-5 3.1e-5,-10e-5"
         style="opacity:1;fill:#666666;fill-opacity:1;fill-rule:evenodd;stroke:#000000;stroke-width:0.08250017;stroke-linecap:butt;stroke-linejoin:miter;stroke-miterlimit:4;stroke-dasharray:none;stroke-dashoffset:0;stroke-opacity:1"
         inkscape:connector-curvature="0" />
      <path
         id="path4938"
         d="m 34.14246,1022.0247 c -2.407813,-0.8228 -5.017706,0.4346 -5.830372,2.8091 -0.151399,0.4489 -0.230725,0.919 -0.235104,1.3934 0,0 -16.437911,8.2511 -16.437911,8.2511 -0.21557,-0.1158 -0.439976,-0.2145 -0.671089,-0.2951 -2.4082006,-0.8241 -5.019325,0.4333 -5.8322205,2.8085 -0.1245065,0.3716 -0.1997712,0.7579 -0.2239217,1.1495 0,0 3.9452708,-2.0172 3.9452708,-2.0172 0.9422941,1.0935 2.1126584,1.5199 2.3538104,4.6632 0,0 -3.5849779,1.8329 -3.5849779,1.8329 0.1308359,0.061 0.2644221,0.115 0.4003177,0.1633 2.4078142,0.8228 5.0177082,-0.4347 5.8303732,-2.8091 0.07617,-0.225 0.134362,-0.4556 0.174026,-0.6898 0,0 17.219816,-8.6421 17.219816,-8.6421 1.496379,0.4931 3.137262,0.198 4.350671,-0.7824 0,0 -4.184074,-1.4185 -4.184074,-1.4185 0.06194,-1.3439 -0.505385,-2.4253 1.495344,-4.5769 0,0 4.228426,1.4337 4.228426,1.4337 -0.369147,-1.5234 -1.501264,-2.7594 -2.998416,-3.2735 0,0 3.1e-5,-10e-5 3.1e-5,-10e-5"
         style="opacity:1;fill:#666666;fill-opacity:1;fill-rule:evenodd;stroke:#000000;stroke-width:0.08250017;stroke-linecap:butt;stroke-linejoin:miter;stroke-miterlimit:4;stroke-dasharray:none;stroke-dashoffset:0;stroke-opacity:1"
         inkscape:connector-curvature="0" />
      <path
         id="path4940"
         d="m 34.12438,1022.0113 c -2.407813,-0.8228 -5.017706,0.4347 -5.830372,2.8091 -0.1514,0.4489 -0.230725,0.919 -0.235104,1.3934 0,0 -16.437912,8.2511 -16.437912,8.2511 -0.215569,-0.1158 -0.439975,-0.2145 -0.671089,-0.2951 -2.4081998,-0.8241 -5.0193242,0.4333 -5.8322196,2.8085 -0.1245066,0.3716 -0.1997713,0.758 -0.2239217,1.1495 0,0 3.9452708,-2.0172 3.9452708,-2.0172 0.9422941,1.0935 2.1126575,1.5199 2.3538095,4.6632 0,0 -3.584977,1.8329 -3.584977,1.8329 0.1308359,0.061 0.264422,0.1151 0.4003177,0.1633 2.4078143,0.8228 5.0177083,-0.4347 5.8303733,-2.8091 0.07617,-0.2249 0.134362,-0.4556 0.174026,-0.6898 0,0 17.219816,-8.6421 17.219816,-8.6421 1.496379,0.4931 3.137262,0.198 4.350671,-0.7824 0,0 -4.184074,-1.4185 -4.184074,-1.4185 0.06194,-1.3439 -0.505385,-2.4253 1.495344,-4.5769 0,0 4.228426,1.4337 4.228426,1.4337 -0.369147,-1.5234 -1.501264,-2.7594 -2.998416,-3.2735 0,0 3.1e-5,-10e-5 3.1e-5,-10e-5"
         style="opacity:1;fill:#666666;fill-opacity:1;fill-rule:evenodd;stroke:#000000;stroke-width:0.08250017;stroke-linecap:butt;stroke-linejoin:miter;stroke-miterlimit:4;stroke-dasharray:none;stroke-dashoffset:0;stroke-opacity:1"
         inkscape:connector-curvature="0" />
      <path
         id="path4942"
         d="m 34.1063,1021.9979 c -2.407813,-0.8228 -5.017707,0.4347 -5.830372,2.8091 -0.1514,0.4489 -0.230725,0.9191 -0.235104,1.3934 0,0 -16.437912,8.2511 -16.437912,8.2511 -0.215569,-0.1158 -0.439975,-0.2144 -0.671089,-0.2951 -2.4081999,-0.824 -5.0193243,0.4333 -5.8322198,2.8085 -0.1245065,0.3716 -0.1997712,0.758 -0.2239217,1.1495 0,0 3.9452708,-2.0172 3.9452708,-2.0172 0.9422941,1.0935 2.1126577,1.5199 2.3538097,4.6632 0,0 -3.5849772,1.8329 -3.5849772,1.8329 0.1308359,0.061 0.2644221,0.1151 0.4003177,0.1633 2.4078135,0.8228 5.0177085,-0.4346 5.8303735,-2.8091 0.07618,-0.2249 0.134362,-0.4556 0.174026,-0.6898 0,0 17.219816,-8.6421 17.219816,-8.6421 1.496379,0.4931 3.137262,0.198 4.350671,-0.7824 0,0 -4.184074,-1.4185 -4.184074,-1.4185 0.06194,-1.3439 -0.505385,-2.4253 1.495344,-4.5769 0,0 4.228426,1.4337 4.228426,1.4337 -0.369147,-1.5234 -1.501265,-2.7593 -2.998416,-3.2735 0,0 3.1e-5,-1e-4 3.1e-5,-1e-4"
         style="opacity:1;fill:#666666;fill-opacity:1;fill-rule:evenodd;stroke:#000000;stroke-width:0.08250017;stroke-linecap:butt;stroke-linejoin:miter;stroke-miterlimit:4;stroke-dasharray:none;stroke-dashoffset:0;stroke-opacity:1"
         inkscape:connector-curvature="0" />
      <path
         id="path4944"
         d="m 34.08822,1021.9845 c -2.407813,-0.8228 -5.017707,0.4347 -5.830372,2.8091 -0.1514,0.4489 -0.230725,0.9191 -0.235104,1.3934 0,0 -16.437912,8.2511 -16.437912,8.2511 -0.215569,-0.1157 -0.439975,-0.2144 -0.671089,-0.2951 -2.4082,-0.824 -5.0193244,0.4334 -5.8322199,2.8085 -0.1245065,0.3716 -0.1997712,0.758 -0.2239217,1.1495 0,0 3.9452708,-2.0172 3.9452708,-2.0172 0.9422941,1.0935 2.1126578,1.5199 2.3538098,4.6632 0,0 -3.5849773,1.8329 -3.5849773,1.8329 0.1308359,0.061 0.2644221,0.1151 0.4003177,0.1633 2.4078136,0.8228 5.0177086,-0.4346 5.8303736,-2.8091 0.07618,-0.2249 0.134362,-0.4555 0.174026,-0.6898 0,0 17.219816,-8.6421 17.219816,-8.6421 1.496379,0.4931 3.137262,0.198 4.350671,-0.7824 0,0 -4.184074,-1.4185 -4.184074,-1.4185 0.06194,-1.3439 -0.505385,-2.4253 1.495344,-4.5769 0,0 4.228426,1.4337 4.228426,1.4337 -0.369148,-1.5233 -1.501265,-2.7593 -2.998416,-3.2735 0,0 3.1e-5,-10e-5 3.1e-5,-10e-5"
         style="opacity:1;fill:#666666;fill-opacity:1;fill-rule:evenodd;stroke:#000000;stroke-width:0.08250017;stroke-linecap:butt;stroke-linejoin:miter;stroke-miterlimit:4;stroke-dasharray:none;stroke-dashoffset:0;stroke-opacity:1"
         inkscape:connector-curvature="0" />
      <path
         id="path4946"
         d="m 34.07014,1021.9711 c -2.407814,-0.8228 -5.017707,0.4347 -5.830372,2.8091 -0.1514,0.4489 -0.230726,0.9191 -0.235104,1.3934 0,0 -16.437912,8.2511 -16.437912,8.2511 -0.215569,-0.1157 -0.439975,-0.2144 -0.671089,-0.2951 -2.4082002,-0.824 -5.0193246,0.4334 -5.83222,2.8085 -0.1245065,0.3716 -0.1997713,0.758 -0.2239217,1.1495 0,0 3.9452708,-2.0172 3.9452708,-2.0172 0.9422941,1.0935 2.1126579,1.5199 2.3538099,4.6632 0,0 -3.5849774,1.8329 -3.5849774,1.8329 0.1308359,0.061 0.264422,0.1151 0.4003177,0.1633 2.4078137,0.8228 5.0177077,-0.4346 5.8303737,-2.8091 0.07617,-0.2249 0.134361,-0.4555 0.174026,-0.6898 0,0 17.219816,-8.6421 17.219816,-8.6421 1.496379,0.4931 3.137262,0.198 4.350671,-0.7824 0,0 -4.184074,-1.4185 -4.184074,-1.4185 0.06194,-1.3439 -0.505385,-2.4253 1.495344,-4.5769 0,0 4.228426,1.4337 4.228426,1.4337 -0.369148,-1.5233 -1.501265,-2.7593 -2.998416,-3.2735 0,0 3.1e-5,-10e-5 3.1e-5,-10e-5"
         style="opacity:1;fill:#666666;fill-opacity:1;fill-rule:evenodd;stroke:#000000;stroke-width:0.08250017;stroke-linecap:butt;stroke-linejoin:miter;stroke-miterlimit:4;stroke-dasharray:none;stroke-dashoffset:0;stroke-opacity:1"
         inkscape:connector-curvature="0" />
      <path
         id="path4948"
         d="m 34.05206,1021.9578 c -2.407814,-0.8228 -5.017707,0.4346 -5.830372,2.8091 -0.1514,0.4489 -0.230726,0.919 -0.235104,1.3934 0,0 -16.437912,8.2511 -16.437912,8.2511 -0.215569,-0.1158 -0.439975,-0.2145 -0.671089,-0.2951 -2.4082003,-0.8241 -5.0193247,0.4333 -5.8322202,2.8085 -0.1245065,0.3716 -0.1997712,0.7579 -0.2239217,1.1495 0,0 3.9452708,-2.0172 3.9452708,-2.0172 0.9422941,1.0935 2.1126581,1.5199 2.3538101,4.6632 0,0 -3.5849776,1.8329 -3.5849776,1.8329 0.1308359,0.061 0.2644221,0.115 0.4003177,0.1633 2.4078139,0.8228 5.0177079,-0.4347 5.8303739,-2.8091 0.07617,-0.225 0.134361,-0.4556 0.174026,-0.6898 0,0 17.219816,-8.6421 17.219816,-8.6421 1.496378,0.493 3.137262,0.198 4.350671,-0.7824 0,0 -4.184074,-1.4185 -4.184074,-1.4185 0.06194,-1.3439 -0.505385,-2.4253 1.495344,-4.5769 0,0 4.228426,1.4337 4.228426,1.4337 -0.369148,-1.5234 -1.501265,-2.7594 -2.998416,-3.2735 0,0 3.1e-5,-10e-5 3.1e-5,-10e-5"
         style="opacity:1;fill:#666666;fill-opacity:1;fill-rule:evenodd;stroke:#000000;stroke-width:0.08250017;stroke-linecap:butt;stroke-linejoin:miter;stroke-miterlimit:4;stroke-dasharray:none;stroke-dashoffset:0;stroke-opacity:1"
         inkscape:connector-curvature="0" />
      <path
         id="path4950"
         d="m 34.033979,1021.9444 c -2.407813,-0.8228 -5.017706,0.4346 -5.830372,2.8091 -0.151399,0.4489 -0.230725,0.919 -0.235104,1.3934 0,0 -16.437911,8.2511 -16.437911,8.2511 -0.215569,-0.1158 -0.439976,-0.2145 -0.671089,-0.2951 -2.4082004,-0.8241 -5.0193248,0.4333 -5.8322203,2.8085 -0.1245065,0.3716 -0.1997712,0.758 -0.2239217,1.1495 0,0 3.9452708,-2.0172 3.9452708,-2.0172 0.9422941,1.0935 2.1126582,1.5199 2.3538102,4.6632 0,0 -3.5849777,1.8329 -3.5849777,1.8329 0.1308359,0.061 0.2644221,0.1151 0.4003177,0.1633 2.407814,0.8228 5.017708,-0.4347 5.830373,-2.8091 0.07617,-0.2249 0.134362,-0.4556 0.174026,-0.6898 0,0 17.219816,-8.6421 17.219816,-8.6421 1.496379,0.4931 3.137263,0.198 4.350671,-0.7824 0,0 -4.184074,-1.4185 -4.184074,-1.4185 0.06194,-1.3439 -0.505385,-2.4253 1.495344,-4.5769 0,0 4.228426,1.4337 4.228426,1.4337 -0.369147,-1.5234 -1.501264,-2.7594 -2.998416,-3.2735 0,0 3.1e-5,-10e-5 3.1e-5,-10e-5"
         style="opacity:1;fill:#666666;fill-opacity:1;fill-rule:evenodd;stroke:#000000;stroke-width:0.08250017;stroke-linecap:butt;stroke-linejoin:miter;stroke-miterlimit:4;stroke-dasharray:none;stroke-dashoffset:0;stroke-opacity:1"
         inkscape:connector-curvature="0" />
      <path
         id="path4952"
         d="m 34.015899,1021.931 c -2.407813,-0.8228 -5.017706,0.4347 -5.830372,2.8091 -0.151399,0.4489 -0.230725,0.919 -0.235104,1.3934 0,0 -16.437911,8.2511 -16.437911,8.2511 -0.215569,-0.1158 -0.439976,-0.2145 -0.671089,-0.2951 -2.4082006,-0.824 -5.019325,0.4333 -5.8322204,2.8085 -0.1245065,0.3716 -0.1997712,0.758 -0.2239217,1.1495 0,0 3.9452708,-2.0172 3.9452708,-2.0172 0.9422941,1.0935 2.1126583,1.5199 2.3538103,4.6632 0,0 -3.5849778,1.8329 -3.5849778,1.8329 0.1308359,0.061 0.2644221,0.1151 0.4003177,0.1633 2.4078141,0.8228 5.0177081,-0.4347 5.8303731,-2.8091 0.07618,-0.2249 0.134362,-0.4556 0.174026,-0.6898 0,0 17.219816,-8.6421 17.219816,-8.6421 1.496379,0.4931 3.137262,0.198 4.350671,-0.7824 0,0 -4.184074,-1.4185 -4.184074,-1.4185 0.06194,-1.3439 -0.505385,-2.4253 1.495344,-4.5769 0,0 4.228426,1.4337 4.228426,1.4337 -0.369147,-1.5234 -1.501264,-2.7594 -2.998416,-3.2735 0,0 3.1e-5,-10e-5 3.1e-5,-10e-5"
         style="opacity:1;fill:#666666;fill-opacity:1;fill-rule:evenodd;stroke:#000000;stroke-width:0.08250017;stroke-linecap:butt;stroke-linejoin:miter;stroke-miterlimit:4;stroke-dasharray:none;stroke-dashoffset:0;stroke-opacity:1"
         inkscape:connector-curvature="0" />
      <path
         id="path4954"
         d="m 33.997819,1021.9176 c -2.407813,-0.8228 -5.017706,0.4347 -5.830372,2.8091 -0.1514,0.4489 -0.230725,0.9191 -0.235104,1.3934 0,0 -16.437911,8.2511 -16.437911,8.2511 -0.21557,-0.1158 -0.439976,-0.2144 -0.671089,-0.2951 -2.4082007,-0.824 -5.0193251,0.4334 -5.8322206,2.8085 -0.1245065,0.3716 -0.1997712,0.758 -0.2239217,1.1495 0,0 3.9452708,-2.0172 3.9452708,-2.0172 0.9422941,1.0935 2.1126585,1.5199 2.3538105,4.6632 0,0 -3.584978,1.8329 -3.584978,1.8329 0.1308359,0.061 0.2644221,0.1151 0.4003177,0.1633 2.4078143,0.8228 5.0177083,-0.4346 5.8303733,-2.8091 0.07617,-0.2249 0.134362,-0.4556 0.174026,-0.6898 0,0 17.219816,-8.6421 17.219816,-8.6421 1.496379,0.4931 3.137262,0.198 4.350671,-0.7824 0,0 -4.184074,-1.4185 -4.184074,-1.4185 0.06194,-1.3439 -0.505385,-2.4253 1.495344,-4.5769 0,0 4.228426,1.4337 4.228426,1.4337 -0.369147,-1.5234 -1.501265,-2.7593 -2.998416,-3.2735 0,0 3.1e-5,-10e-5 3.1e-5,-10e-5"
         style="opacity:1;fill:#666666;fill-opacity:1;fill-rule:evenodd;stroke:#000000;stroke-width:0.08250017;stroke-linecap:butt;stroke-linejoin:miter;stroke-miterlimit:4;stroke-dasharray:none;stroke-dashoffset:0;stroke-opacity:1"
         inkscape:connector-curvature="0" />
      <path
         id="path4956"
         d="m 33.979739,1021.9042 c -2.407813,-0.8228 -5.017707,0.4347 -5.830372,2.8091 -0.1514,0.4489 -0.230725,0.9191 -0.235104,1.3934 0,0 -16.437912,8.2511 -16.437912,8.2511 -0.215569,-0.1157 -0.439975,-0.2144 -0.671089,-0.2951 -2.4081999,-0.824 -5.0193242,0.4334 -5.8322197,2.8085 -0.1245065,0.3716 -0.1997712,0.758 -0.2239217,1.1495 0,0 3.9452708,-2.0172 3.9452708,-2.0172 0.9422941,1.0935 2.1126576,1.5199 2.3538096,4.6632 0,0 -3.5849771,1.8329 -3.5849771,1.8329 0.1308359,0.061 0.2644221,0.1151 0.4003177,0.1633 2.4078134,0.8228 5.0177084,-0.4346 5.8303734,-2.8091 0.07617,-0.2249 0.134362,-0.4555 0.174026,-0.6898 0,0 17.219816,-8.6421 17.219816,-8.6421 1.496379,0.4931 3.137262,0.198 4.350671,-0.7824 0,0 -4.184074,-1.4185 -4.184074,-1.4185 0.06194,-1.3439 -0.505385,-2.4253 1.495344,-4.5769 0,0 4.228426,1.4337 4.228426,1.4337 -0.369148,-1.5233 -1.501265,-2.7593 -2.998416,-3.2735 0,0 3.1e-5,-1e-4 3.1e-5,-1e-4"
         style="opacity:1;fill:#666666;fill-opacity:1;fill-rule:evenodd;stroke:#000000;stroke-width:0.08250017;stroke-linecap:butt;stroke-linejoin:miter;stroke-miterlimit:4;stroke-dasharray:none;stroke-dashoffset:0;stroke-opacity:1"
         inkscape:connector-curvature="0" />
      <path
         id="path4958"
         d="m 33.961659,1021.8909 c -2.407814,-0.8228 -5.017707,0.4346 -5.830372,2.8091 -0.1514,0.4488 -0.230726,0.919 -0.235104,1.3934 0,0 -16.437912,8.2511 -16.437912,8.2511 -0.215569,-0.1158 -0.439975,-0.2145 -0.671089,-0.2951 -2.4082,-0.8241 -5.0193244,0.4333 -5.8322198,2.8085 -0.1245065,0.3716 -0.1997712,0.7579 -0.2239217,1.1495 0,0 3.9452708,-2.0172 3.9452708,-2.0172 0.9422941,1.0935 2.1126577,1.5199 2.3538097,4.6632 0,0 -3.5849772,1.8329 -3.5849772,1.8329 0.1308359,0.061 0.2644221,0.115 0.4003177,0.1633 2.4078135,0.8228 5.0177085,-0.4347 5.8303735,-2.8091 0.07618,-0.225 0.134361,-0.4556 0.174026,-0.6898 0,0 17.219816,-8.6421 17.219816,-8.6421 1.496379,0.493 3.137262,0.1979 4.350671,-0.7824 0,0 -4.184074,-1.4185 -4.184074,-1.4185 0.06194,-1.3439 -0.505385,-2.4253 1.495344,-4.5769 0,0 4.228426,1.4337 4.228426,1.4337 -0.369148,-1.5234 -1.501265,-2.7594 -2.998416,-3.2735 0,0 3.1e-5,-10e-5 3.1e-5,-10e-5"
         style="opacity:1;fill:#666666;fill-opacity:1;fill-rule:evenodd;stroke:#000000;stroke-width:0.08250017;stroke-linecap:butt;stroke-linejoin:miter;stroke-miterlimit:4;stroke-dasharray:none;stroke-dashoffset:0;stroke-opacity:1"
         inkscape:connector-curvature="0" />
      <path
         id="path4960"
         d="m 33.943579,1021.8775 c -2.407814,-0.8228 -5.017707,0.4346 -5.830372,2.8091 -0.1514,0.4489 -0.230726,0.919 -0.235104,1.3934 0,0 -16.437912,8.2511 -16.437912,8.2511 -0.215569,-0.1158 -0.439975,-0.2145 -0.671089,-0.2951 -2.4082001,-0.8241 -5.0193245,0.4333 -5.83222,2.8085 -0.1245065,0.3716 -0.1997712,0.7579 -0.2239217,1.1495 0,0 3.9452708,-2.0172 3.9452708,-2.0172 0.9422941,1.0935 2.1126579,1.5199 2.3538099,4.6632 0,0 -3.5849774,1.8329 -3.5849774,1.8329 0.1308359,0.061 0.2644221,0.115 0.4003177,0.1633 2.4078137,0.8228 5.0177077,-0.4347 5.8303737,-2.8091 0.07617,-0.225 0.134361,-0.4556 0.174026,-0.6898 0,0 17.219816,-8.6421 17.219816,-8.6421 1.496378,0.493 3.137262,0.198 4.350671,-0.7824 0,0 -4.184074,-1.4185 -4.184074,-1.4185 0.06194,-1.3439 -0.505385,-2.4253 1.495344,-4.5769 0,0 4.228426,1.4337 4.228426,1.4337 -0.369148,-1.5234 -1.501265,-2.7594 -2.998416,-3.2735 0,0 3.1e-5,-10e-5 3.1e-5,-10e-5"
         style="opacity:1;fill:#666666;fill-opacity:1;fill-rule:evenodd;stroke:#000000;stroke-width:0.08250017;stroke-linecap:butt;stroke-linejoin:miter;stroke-miterlimit:4;stroke-dasharray:none;stroke-dashoffset:0;stroke-opacity:1"
         inkscape:connector-curvature="0" />
      <path
         id="path4962"
         d="m 33.925499,1021.8641 c -2.407814,-0.8228 -5.017707,0.4346 -5.830372,2.8091 -0.1514,0.4489 -0.230726,0.919 -0.235104,1.3934 0,0 -16.437912,8.2511 -16.437912,8.2511 -0.215569,-0.1158 -0.439975,-0.2145 -0.671089,-0.2951 -2.4082003,-0.8241 -5.0193246,0.4333 -5.8322201,2.8085 -0.1245065,0.3716 -0.1997712,0.758 -0.2239217,1.1495 0,0 3.9452708,-2.0172 3.9452708,-2.0172 0.9422941,1.0935 2.112658,1.5199 2.35381,4.6632 0,0 -3.5849775,1.8329 -3.5849775,1.8329 0.1308359,0.061 0.2644221,0.1151 0.4003177,0.1633 2.4078138,0.8228 5.0177078,-0.4347 5.8303738,-2.8091 0.07617,-0.2249 0.134361,-0.4556 0.174026,-0.6898 0,0 17.219816,-8.6421 17.219816,-8.6421 1.496378,0.4931 3.137262,0.198 4.350671,-0.7824 0,0 -4.184074,-1.4185 -4.184074,-1.4185 0.06194,-1.3439 -0.505385,-2.4253 1.495344,-4.5769 0,0 4.228426,1.4337 4.228426,1.4337 -0.369148,-1.5234 -1.501265,-2.7594 -2.998416,-3.2735 0,0 3.1e-5,-10e-5 3.1e-5,-10e-5"
         style="opacity:1;fill:#666666;fill-opacity:1;fill-rule:evenodd;stroke:#000000;stroke-width:0.08250017;stroke-linecap:butt;stroke-linejoin:miter;stroke-miterlimit:4;stroke-dasharray:none;stroke-dashoffset:0;stroke-opacity:1"
         inkscape:connector-curvature="0" />
      <path
         id="path4964"
         d="m 33.907418,1021.8507 c -2.407813,-0.8228 -5.017706,0.4347 -5.830372,2.8091 -0.151399,0.4489 -0.230725,0.919 -0.235104,1.3934 0,0 -16.437911,8.2511 -16.437911,8.2511 -0.215569,-0.1158 -0.439976,-0.2144 -0.671089,-0.2951 -2.4082004,-0.824 -5.0193247,0.4333 -5.8322202,2.8085 -0.1245065,0.3716 -0.1997712,0.758 -0.2239217,1.1495 0,0 3.9452708,-2.0172 3.9452708,-2.0172 0.9422941,1.0935 2.1126581,1.5199 2.3538101,4.6632 0,0 -3.5849776,1.8329 -3.5849776,1.8329 0.1308359,0.061 0.2644221,0.1151 0.4003177,0.1633 2.4078139,0.8228 5.0177079,-0.4347 5.8303729,-2.8091 0.07617,-0.2249 0.134362,-0.4556 0.174026,-0.6898 0,0 17.219816,-8.6421 17.219816,-8.6421 1.496379,0.4931 3.137262,0.198 4.350671,-0.7824 0,0 -4.184074,-1.4185 -4.184074,-1.4185 0.06194,-1.3439 -0.505385,-2.4253 1.495344,-4.5769 0,0 4.228426,1.4337 4.228426,1.4337 -0.369147,-1.5234 -1.501264,-2.7593 -2.998416,-3.2735 0,0 3.1e-5,-1e-4 3.1e-5,-1e-4"
         style="opacity:1;fill:#666666;fill-opacity:1;fill-rule:evenodd;stroke:#000000;stroke-width:0.08250017;stroke-linecap:butt;stroke-linejoin:miter;stroke-miterlimit:4;stroke-dasharray:none;stroke-dashoffset:0;stroke-opacity:1"
         inkscape:connector-curvature="0" />
      <path
         id="path4966"
         d="m 33.889338,1021.8373 c -2.407813,-0.8228 -5.017706,0.4347 -5.830372,2.8091 -0.1514,0.4489 -0.230725,0.9191 -0.235104,1.3934 0,0 -16.437911,8.2511 -16.437911,8.2511 -0.215569,-0.1157 -0.439976,-0.2144 -0.671089,-0.2951 -2.4082005,-0.824 -5.0193249,0.4334 -5.8322204,2.8085 -0.1245065,0.3716 -0.1997712,0.758 -0.2239217,1.1495 0,0 3.9452708,-2.0172 3.9452708,-2.0172 0.9422941,1.0935 2.1126583,1.5199 2.3538103,4.6632 0,0 -3.5849778,1.8329 -3.5849778,1.8329 0.1308359,0.061 0.2644221,0.1151 0.4003177,0.1633 2.4078141,0.8228 5.0177081,-0.4346 5.8303731,-2.8091 0.07617,-0.2249 0.134362,-0.4555 0.174026,-0.6898 0,0 17.219816,-8.6421 17.219816,-8.6421 1.496379,0.4931 3.137262,0.198 4.350671,-0.7824 0,0 -4.184074,-1.4185 -4.184074,-1.4185 0.06194,-1.3439 -0.505385,-2.4253 1.495344,-4.5769 0,0 4.228426,1.4337 4.228426,1.4337 -0.369147,-1.5233 -1.501265,-2.7593 -2.998416,-3.2735 0,0 3.1e-5,-10e-5 3.1e-5,-10e-5"
         style="opacity:1;fill:#666666;fill-opacity:1;fill-rule:evenodd;stroke:#000000;stroke-width:0.08250017;stroke-linecap:butt;stroke-linejoin:miter;stroke-miterlimit:4;stroke-dasharray:none;stroke-dashoffset:0;stroke-opacity:1"
         inkscape:connector-curvature="0" />
      <path
         id="path4968"
         d="m 33.871258,1021.8239 c -2.407813,-0.8228 -5.017707,0.4347 -5.830372,2.8091 -0.1514,0.4489 -0.230725,0.9191 -0.235104,1.3934 0,0 -16.437911,8.2511 -16.437911,8.2511 -0.21557,-0.1157 -0.439976,-0.2144 -0.671089,-0.2951 -2.4082007,-0.824 -5.019325,0.4334 -5.8322205,2.8085 -0.1245065,0.3716 -0.1997712,0.758 -0.2239217,1.1495 0,0 3.9452708,-2.0172 3.9452708,-2.0172 0.9422941,1.0935 2.1126584,1.5199 2.3538104,4.6632 0,0 -3.5849779,1.8329 -3.5849779,1.8329 0.1308359,0.061 0.2644221,0.1151 0.4003177,0.1633 2.4078142,0.8228 5.0177082,-0.4346 5.8303732,-2.8091 0.07618,-0.2249 0.134362,-0.4555 0.174026,-0.6898 0,0 17.219816,-8.6421 17.219816,-8.6421 1.496379,0.4931 3.137262,0.198 4.350671,-0.7824 0,0 -4.184074,-1.4185 -4.184074,-1.4185 0.06194,-1.3439 -0.505385,-2.4253 1.495344,-4.5769 0,0 4.228426,1.4337 4.228426,1.4337 -0.369147,-1.5233 -1.501265,-2.7593 -2.998416,-3.2735 0,0 3.1e-5,-10e-5 3.1e-5,-10e-5"
         style="opacity:1;fill:#666666;fill-opacity:1;fill-rule:evenodd;stroke:#000000;stroke-width:0.08250017;stroke-linecap:butt;stroke-linejoin:miter;stroke-miterlimit:4;stroke-dasharray:none;stroke-dashoffset:0;stroke-opacity:1"
         inkscape:connector-curvature="0" />
      <path
         id="path4970"
         d="m 33.853178,1021.8106 c -2.407813,-0.8228 -5.017707,0.4346 -5.830372,2.8091 -0.1514,0.4489 -0.230725,0.919 -0.235104,1.3934 0,0 -16.437912,8.2511 -16.437912,8.2511 -0.215569,-0.1158 -0.439975,-0.2145 -0.671089,-0.2951 -2.4081998,-0.8241 -5.0193241,0.4333 -5.8322196,2.8085 -0.1245065,0.3716 -0.1997712,0.7579 -0.2239217,1.1495 0,0 3.9452708,-2.0172 3.9452708,-2.0172 0.9422941,1.0935 2.1126575,1.5199 2.3538095,4.6632 0,0 -3.584977,1.8329 -3.584977,1.8329 0.1308359,0.061 0.2644221,0.115 0.4003177,0.1633 2.4078133,0.8228 5.0177083,-0.4347 5.8303733,-2.8091 0.07617,-0.225 0.134361,-0.4556 0.174026,-0.6898 0,0 17.219816,-8.6421 17.219816,-8.6421 1.496379,0.493 3.137262,0.1979 4.350671,-0.7824 0,0 -4.184074,-1.4185 -4.184074,-1.4185 0.06194,-1.3439 -0.505385,-2.4253 1.495344,-4.5769 0,0 4.228426,1.4337 4.228426,1.4337 -0.369148,-1.5234 -1.501265,-2.7594 -2.998416,-3.2735 0,0 3.1e-5,-10e-5 3.1e-5,-10e-5"
         style="opacity:1;fill:#666666;fill-opacity:1;fill-rule:evenodd;stroke:#000000;stroke-width:0.08250017;stroke-linecap:butt;stroke-linejoin:miter;stroke-miterlimit:4;stroke-dasharray:none;stroke-dashoffset:0;stroke-opacity:1"
         inkscape:connector-curvature="0" />
      <path
         id="path4972"
         d="m 33.835098,1021.7972 c -2.407814,-0.8228 -5.017707,0.4346 -5.830372,2.8091 -0.1514,0.4489 -0.230726,0.919 -0.235104,1.3934 0,0 -16.437912,8.2511 -16.437912,8.2511 -0.215569,-0.1158 -0.439975,-0.2145 -0.671089,-0.2951 -2.4081999,-0.8241 -5.0193243,0.4333 -5.8322197,2.8085 -0.1245066,0.3716 -0.1997713,0.7579 -0.2239217,1.1495 0,0 3.9452708,-2.0172 3.9452708,-2.0172 0.9422941,1.0935 2.1126576,1.5199 2.3538096,4.6632 0,0 -3.5849771,1.8329 -3.5849771,1.8329 0.1308359,0.061 0.264422,0.115 0.4003177,0.1633 2.4078134,0.8228 5.0177074,-0.4347 5.8303734,-2.8091 0.07617,-0.225 0.134361,-0.4556 0.174026,-0.6898 0,0 17.219816,-8.6421 17.219816,-8.6421 1.496379,0.4931 3.137262,0.198 4.350671,-0.7824 0,0 -4.184074,-1.4185 -4.184074,-1.4185 0.06194,-1.3439 -0.505385,-2.4253 1.495344,-4.5769 0,0 4.228426,1.4337 4.228426,1.4337 -0.369148,-1.5234 -1.501265,-2.7594 -2.998416,-3.2735 0,0 3.1e-5,-10e-5 3.1e-5,-10e-5"
         style="opacity:1;fill:#666666;fill-opacity:1;fill-rule:evenodd;stroke:#000000;stroke-width:0.08250017;stroke-linecap:butt;stroke-linejoin:miter;stroke-miterlimit:4;stroke-dasharray:none;stroke-dashoffset:0;stroke-opacity:1"
         inkscape:connector-curvature="0" />
      <path
         id="path4974"
         d="m 33.817018,1021.7838 c -2.407814,-0.8228 -5.017707,0.4347 -5.830372,2.8091 -0.1514,0.4489 -0.230726,0.919 -0.235104,1.3934 0,0 -16.437912,8.2511 -16.437912,8.2511 -0.215569,-0.1158 -0.439975,-0.2145 -0.671089,-0.2951 -2.4082001,-0.8241 -5.0193244,0.4333 -5.8322199,2.8085 -0.1245065,0.3716 -0.1997712,0.758 -0.2239217,1.1495 0,0 3.9452708,-2.0172 3.9452708,-2.0172 0.9422941,1.0935 2.1126578,1.5199 2.3538098,4.6632 0,0 -3.5849773,1.8329 -3.5849773,1.8329 0.1308359,0.061 0.2644221,0.1151 0.4003177,0.1633 2.4078136,0.8228 5.0177076,-0.4347 5.8303736,-2.8091 0.07617,-0.2249 0.134361,-0.4556 0.174026,-0.6898 0,0 17.219816,-8.6421 17.219816,-8.6421 1.496378,0.4931 3.137262,0.198 4.350671,-0.7824 0,0 -4.184074,-1.4185 -4.184074,-1.4185 0.06194,-1.3439 -0.505385,-2.4253 1.495344,-4.5769 0,0 4.228426,1.4337 4.228426,1.4337 -0.369148,-1.5234 -1.501265,-2.7594 -2.998416,-3.2735 0,0 3.1e-5,-10e-5 3.1e-5,-10e-5"
         style="opacity:1;fill:#666666;fill-opacity:1;fill-rule:evenodd;stroke:#000000;stroke-width:0.08250017;stroke-linecap:butt;stroke-linejoin:miter;stroke-miterlimit:4;stroke-dasharray:none;stroke-dashoffset:0;stroke-opacity:1"
         inkscape:connector-curvature="0" />
      <path
         id="path4976"
         d="m 33.798937,1021.7704 c -2.407813,-0.8228 -5.017706,0.4347 -5.830372,2.8091 -0.151399,0.4489 -0.230725,0.9191 -0.235104,1.3934 0,0 -16.437911,8.2511 -16.437911,8.2511 -0.215569,-0.1158 -0.439975,-0.2144 -0.671089,-0.2951 -2.4082002,-0.824 -5.0193245,0.4333 -5.83222,2.8085 -0.1245065,0.3716 -0.1997712,0.758 -0.2239217,1.1495 0,0 3.9452708,-2.0172 3.9452708,-2.0172 0.9422941,1.0935 2.1126579,1.5199 2.3538099,4.6632 0,0 -3.5849774,1.8329 -3.5849774,1.8329 0.1308359,0.061 0.2644221,0.1151 0.4003177,0.1633 2.4078137,0.8228 5.0177077,-0.4346 5.8303727,-2.8091 0.07617,-0.2249 0.134362,-0.4556 0.174026,-0.6898 0,0 17.219816,-8.6421 17.219816,-8.6421 1.496379,0.4931 3.137262,0.198 4.350671,-0.7824 0,0 -4.184074,-1.4185 -4.184074,-1.4185 0.06194,-1.3439 -0.505385,-2.4253 1.495344,-4.5769 0,0 4.228426,1.4337 4.228426,1.4337 -0.369147,-1.5234 -1.501264,-2.7593 -2.998416,-3.2735 0,0 3.1e-5,-10e-5 3.1e-5,-10e-5"
         style="opacity:1;fill:#666666;fill-opacity:1;fill-rule:evenodd;stroke:#000000;stroke-width:0.08250017;stroke-linecap:butt;stroke-linejoin:miter;stroke-miterlimit:4;stroke-dasharray:none;stroke-dashoffset:0;stroke-opacity:1"
         inkscape:connector-curvature="0" />
      <path
         id="path4978"
         d="m 33.780857,1021.757 c -2.407813,-0.8228 -5.017706,0.4347 -5.830372,2.8091 -0.151399,0.4489 -0.230725,0.9191 -0.235104,1.3934 0,0 -16.437911,8.2511 -16.437911,8.2511 -0.215569,-0.1157 -0.439975,-0.2144 -0.671089,-0.2951 -2.4082003,-0.824 -5.0193247,0.4334 -5.8322201,2.8085 -0.1245065,0.3716 -0.1997713,0.758 -0.2239217,1.1495 0,0 3.9452708,-2.0172 3.9452708,-2.0172 0.9422941,1.0935 2.112658,1.5199 2.35381,4.6632 0,0 -3.5849775,1.8329 -3.5849775,1.8329 0.1308359,0.061 0.264422,0.1151 0.4003177,0.1633 2.4078138,0.8228 5.0177078,-0.4346 5.8303728,-2.8091 0.07618,-0.2249 0.134362,-0.4555 0.174026,-0.6898 0,0 17.219816,-8.6421 17.219816,-8.6421 1.496379,0.4931 3.137262,0.198 4.350671,-0.7824 0,0 -4.184074,-1.4185 -4.184074,-1.4185 0.06194,-1.3439 -0.505385,-2.4253 1.495344,-4.5769 0,0 4.228426,1.4337 4.228426,1.4337 -0.369147,-1.5233 -1.501264,-2.7593 -2.998416,-3.2735 0,0 3.1e-5,-1e-4 3.1e-5,-1e-4"
         style="opacity:1;fill:#666666;fill-opacity:1;fill-rule:evenodd;stroke:#000000;stroke-width:0.08250017;stroke-linecap:butt;stroke-linejoin:miter;stroke-miterlimit:4;stroke-dasharray:none;stroke-dashoffset:0;stroke-opacity:1"
         inkscape:connector-curvature="0" />
      <path
         id="path4980"
         d="m 33.762777,1021.7436 c -2.407813,-0.8228 -5.017706,0.4347 -5.830372,2.8091 -0.1514,0.4489 -0.230725,0.9191 -0.235104,1.3934 0,0 -16.437911,8.2511 -16.437911,8.2511 -0.215569,-0.1157 -0.439976,-0.2144 -0.671089,-0.2951 -2.4082005,-0.824 -5.0193248,0.4334 -5.8322203,2.8085 -0.1245065,0.3716 -0.1997712,0.758 -0.2239217,1.1495 0,0 3.9452708,-2.0172 3.9452708,-2.0172 0.9422941,1.0935 2.1126582,1.5199 2.3538102,4.6632 0,0 -3.5849777,1.8329 -3.5849777,1.8329 0.1308359,0.061 0.2644221,0.1151 0.4003177,0.1633 2.407814,0.8228 5.017708,-0.4346 5.830373,-2.8091 0.07617,-0.2249 0.134362,-0.4555 0.174026,-0.6898 0,0 17.219816,-8.6421 17.219816,-8.6421 1.496379,0.4931 3.137262,0.198 4.350671,-0.7824 0,0 -4.184074,-1.4185 -4.184074,-1.4185 0.06194,-1.3439 -0.505385,-2.4253 1.495344,-4.5769 0,0 4.228426,1.4337 4.228426,1.4337 -0.369147,-1.5233 -1.501265,-2.7593 -2.998416,-3.2735 0,0 3.1e-5,-10e-5 3.1e-5,-10e-5"
         style="opacity:1;fill:#666666;fill-opacity:1;fill-rule:evenodd;stroke:#000000;stroke-width:0.08250017;stroke-linecap:butt;stroke-linejoin:miter;stroke-miterlimit:4;stroke-dasharray:none;stroke-dashoffset:0;stroke-opacity:1"
         inkscape:connector-curvature="0" />
      <path
         id="path4982"
         d="m 33.744697,1021.7303 c -2.407813,-0.8228 -5.017707,0.4346 -5.830372,2.8091 -0.1514,0.4489 -0.230725,0.919 -0.235104,1.3934 0,0 -16.437911,8.2511 -16.437911,8.2511 -0.21557,-0.1158 -0.439976,-0.2145 -0.671089,-0.2951 -2.4082006,-0.8241 -5.0193249,0.4333 -5.8322204,2.8085 -0.1245065,0.3716 -0.1997712,0.7579 -0.2239217,1.1495 0,0 3.9452708,-2.0172 3.9452708,-2.0172 0.9422941,1.0935 2.1126583,1.5199 2.3538103,4.6632 0,0 -3.5849778,1.8329 -3.5849778,1.8329 0.1308359,0.06 0.2644221,0.115 0.4003177,0.1633 2.4078141,0.8228 5.0177081,-0.4347 5.8303731,-2.8091 0.07617,-0.225 0.134362,-0.4556 0.174026,-0.6898 0,0 17.219816,-8.6421 17.219816,-8.6421 1.496379,0.493 3.137262,0.198 4.350671,-0.7824 0,0 -4.184074,-1.4185 -4.184074,-1.4185 0.06194,-1.3439 -0.505385,-2.4253 1.495344,-4.5769 0,0 4.228426,1.4337 4.228426,1.4337 -0.369148,-1.5234 -1.501265,-2.7594 -2.998416,-3.2735 0,0 3.1e-5,-10e-5 3.1e-5,-10e-5"
         style="opacity:1;fill:#666666;fill-opacity:1;fill-rule:evenodd;stroke:#000000;stroke-width:0.08250017;stroke-linecap:butt;stroke-linejoin:miter;stroke-miterlimit:4;stroke-dasharray:none;stroke-dashoffset:0;stroke-opacity:1"
         inkscape:connector-curvature="0" />
      <path
         id="path4984"
         d="m 33.726617,1021.7169 c -2.407814,-0.8228 -5.017707,0.4346 -5.830372,2.8091 -0.1514,0.4489 -0.230726,0.919 -0.235104,1.3934 0,0 -16.437912,8.2511 -16.437912,8.2511 -0.215569,-0.1158 -0.439975,-0.2145 -0.671089,-0.2951 -2.4081997,-0.8241 -5.0193241,0.4333 -5.8322195,2.8085 -0.1245065,0.3716 -0.1997712,0.758 -0.2239217,1.1495 0,0 3.9452708,-2.0172 3.9452708,-2.0172 0.9422941,1.0935 2.1126574,1.5199 2.3538094,4.6632 0,0 -3.5849769,1.8329 -3.5849769,1.8329 0.1308359,0.061 0.2644221,0.1151 0.4003177,0.1633 2.4078132,0.8228 5.0177072,-0.4347 5.8303732,-2.8091 0.07618,-0.2249 0.134361,-0.4556 0.174026,-0.6898 0,0 17.219816,-8.6421 17.219816,-8.6421 1.496379,0.4931 3.137262,0.198 4.350671,-0.7824 0,0 -4.184074,-1.4185 -4.184074,-1.4185 0.06194,-1.3439 -0.505385,-2.4253 1.495344,-4.5769 0,0 4.228426,1.4337 4.228426,1.4337 -0.369148,-1.5234 -1.501265,-2.7594 -2.998416,-3.2735 0,0 3.1e-5,-10e-5 3.1e-5,-10e-5"
         style="opacity:1;fill:#666666;fill-opacity:1;fill-rule:evenodd;stroke:#000000;stroke-width:0.08250017;stroke-linecap:butt;stroke-linejoin:miter;stroke-miterlimit:4;stroke-dasharray:none;stroke-dashoffset:0;stroke-opacity:1"
         inkscape:connector-curvature="0" />
      <path
         id="path4986"
         d="m 33.708537,1021.7035 c -2.407814,-0.8228 -5.017707,0.4347 -5.830372,2.8091 -0.1514,0.4489 -0.230726,0.919 -0.235104,1.3934 0,0 -16.437912,8.2511 -16.437912,8.2511 -0.215569,-0.1158 -0.439975,-0.2145 -0.671089,-0.2951 -2.4081999,-0.824 -5.0193242,0.4333 -5.8322197,2.8085 -0.1245065,0.3716 -0.1997712,0.758 -0.2239217,1.1495 0,0 3.9452708,-2.0172 3.9452708,-2.0172 0.9422941,1.0935 2.1126576,1.5199 2.3538096,4.6632 0,0 -3.5849771,1.8329 -3.5849771,1.8329 0.1308359,0.061 0.2644221,0.1151 0.4003177,0.1633 2.4078134,0.8228 5.0177074,-0.4347 5.8303734,-2.8091 0.07617,-0.2249 0.134361,-0.4556 0.174026,-0.6898 0,0 17.219816,-8.6421 17.219816,-8.6421 1.496378,0.4931 3.137262,0.198 4.350671,-0.7824 0,0 -4.184074,-1.4185 -4.184074,-1.4185 0.06194,-1.3439 -0.505385,-2.4253 1.495344,-4.5769 0,0 4.228426,1.4337 4.228426,1.4337 -0.369148,-1.5234 -1.501265,-2.7594 -2.998416,-3.2735 0,0 3.1e-5,-1e-4 3.1e-5,-1e-4"
         style="opacity:1;fill:#666666;fill-opacity:1;fill-rule:evenodd;stroke:#000000;stroke-width:0.08250017;stroke-linecap:butt;stroke-linejoin:miter;stroke-miterlimit:4;stroke-dasharray:none;stroke-dashoffset:0;stroke-opacity:1"
         inkscape:connector-curvature="0" />
      <path
         id="path4988"
         d="m 33.690457,1021.6901 c -2.407814,-0.8228 -5.017707,0.4347 -5.830372,2.8091 -0.1514,0.4489 -0.230726,0.9191 -0.235104,1.3934 0,0 -16.437912,8.2511 -16.437912,8.2511 -0.215569,-0.1158 -0.439975,-0.2144 -0.671089,-0.2951 -2.4082,-0.824 -5.0193243,0.4334 -5.8322198,2.8085 -0.1245065,0.3716 -0.1997712,0.758 -0.2239217,1.1495 0,0 3.9452708,-2.0172 3.9452708,-2.0172 0.9422941,1.0935 2.1126577,1.5199 2.3538097,4.6632 0,0 -3.5849772,1.8329 -3.5849772,1.8329 0.1308359,0.061 0.2644221,0.1151 0.4003177,0.1633 2.4078137,0.8228 5.0177075,-0.4346 5.8303735,-2.8091 0.07617,-0.2249 0.134361,-0.4556 0.174026,-0.6898 0,0 17.219816,-8.6421 17.219816,-8.6421 1.496378,0.4931 3.137262,0.198 4.350671,-0.7824 0,0 -4.184074,-1.4185 -4.184074,-1.4185 0.06194,-1.3439 -0.505385,-2.4253 1.495344,-4.5769 0,0 4.228426,1.4337 4.228426,1.4337 -0.369148,-1.5234 -1.501265,-2.7593 -2.998416,-3.2735 0,0 3.1e-5,-10e-5 3.1e-5,-10e-5"
         style="opacity:1;fill:#666666;fill-opacity:1;fill-rule:evenodd;stroke:#000000;stroke-width:0.08250017;stroke-linecap:butt;stroke-linejoin:miter;stroke-miterlimit:4;stroke-dasharray:none;stroke-dashoffset:0;stroke-opacity:1"
         inkscape:connector-curvature="0" />
      <path
         id="path4990"
         d="m 33.672376,1021.6767 c -2.407813,-0.8228 -5.017706,0.4347 -5.830372,2.8091 -0.151399,0.4489 -0.230725,0.9191 -0.235104,1.3934 0,0 -16.437911,8.2511 -16.437911,8.2511 -0.215569,-0.1157 -0.439975,-0.2144 -0.671089,-0.2951 -2.4082002,-0.824 -5.0193245,0.4334 -5.8322199,2.8085 -0.1245065,0.3716 -0.1997712,0.758 -0.2239217,1.1495 0,0 3.9452708,-2.0172 3.9452708,-2.0172 0.9422941,1.0935 2.1126578,1.5199 2.3538098,4.6632 0,0 -3.5849773,1.8329 -3.5849773,1.8329 0.1308359,0.061 0.2644221,0.1151 0.4003177,0.1633 2.4078137,0.8228 5.0177076,-0.4346 5.8303726,-2.8091 0.07617,-0.2249 0.134362,-0.4555 0.174026,-0.6898 0,0 17.219816,-8.6421 17.219816,-8.6421 1.496379,0.4931 3.137262,0.198 4.350671,-0.7824 0,0 -4.184074,-1.4185 -4.184074,-1.4185 0.06194,-1.3439 -0.505385,-2.4253 1.495344,-4.5769 0,0 4.228426,1.4337 4.228426,1.4337 -0.369147,-1.5233 -1.501264,-2.7593 -2.998416,-3.2735 0,0 3.1e-5,-10e-5 3.1e-5,-10e-5"
         style="opacity:1;fill:#666666;fill-opacity:1;fill-rule:evenodd;stroke:#000000;stroke-width:0.08250017;stroke-linecap:butt;stroke-linejoin:miter;stroke-miterlimit:4;stroke-dasharray:none;stroke-dashoffset:0;stroke-opacity:1"
         inkscape:connector-curvature="0" />
      <path
         id="path4992"
         d="m 33.654296,1021.6634 c -2.407813,-0.8228 -5.017706,0.4346 -5.830372,2.8091 -0.1514,0.4488 -0.230725,0.919 -0.235104,1.3934 0,0 -16.437911,8.2511 -16.437911,8.2511 -0.215569,-0.1158 -0.439975,-0.2145 -0.671089,-0.2951 -2.4082003,-0.8241 -5.0193246,0.4333 -5.8322201,2.8085 -0.1245065,0.3716 -0.1997712,0.7579 -0.2239217,1.1495 0,0 3.9452708,-2.0172 3.9452708,-2.0172 0.9422941,1.0935 2.112658,1.5199 2.35381,4.6632 0,0 -3.5849775,1.8329 -3.5849775,1.8329 0.1308359,0.061 0.2644221,0.115 0.4003177,0.1633 2.4078137,0.8228 5.0177078,-0.4347 5.8303728,-2.8091 0.07617,-0.225 0.134362,-0.4556 0.174026,-0.6898 0,0 17.219816,-8.6421 17.219816,-8.6421 1.496379,0.493 3.137262,0.1979 4.350671,-0.7824 0,0 -4.184074,-1.4185 -4.184074,-1.4185 0.06194,-1.3439 -0.505385,-2.4253 1.495344,-4.5769 0,0 4.228426,1.4337 4.228426,1.4337 -0.369147,-1.5234 -1.501265,-2.7594 -2.998416,-3.2735 0,0 3.1e-5,-10e-5 3.1e-5,-10e-5"
         style="opacity:1;fill:#666666;fill-opacity:1;fill-rule:evenodd;stroke:#000000;stroke-width:0.08250017;stroke-linecap:butt;stroke-linejoin:miter;stroke-miterlimit:4;stroke-dasharray:none;stroke-dashoffset:0;stroke-opacity:1"
         inkscape:connector-curvature="0" />
      <path
         id="path4994"
         d="m 33.636216,1021.65 c -2.407813,-0.8228 -5.017707,0.4346 -5.830372,2.8091 -0.1514,0.4489 -0.230725,0.919 -0.235104,1.3934 0,0 -16.437911,8.2511 -16.437911,8.2511 -0.215569,-0.1158 -0.439976,-0.2145 -0.671089,-0.2951 -2.4082004,-0.8241 -5.0193247,0.4333 -5.8322202,2.8085 -0.1245065,0.3716 -0.1997712,0.7579 -0.2239217,1.1495 0,0 3.9452708,-2.0172 3.9452708,-2.0172 0.9422941,1.0935 2.1126581,1.5199 2.3538101,4.6632 0,0 -3.5849776,1.8329 -3.5849776,1.8329 0.1308359,0.061 0.2644221,0.115 0.4003177,0.1633 2.4078137,0.8228 5.0177079,-0.4347 5.8303729,-2.8091 0.07618,-0.225 0.134362,-0.4556 0.174026,-0.6898 0,0 17.219816,-8.6421 17.219816,-8.6421 1.496379,0.493 3.137262,0.198 4.350671,-0.7824 0,0 -4.184074,-1.4185 -4.184074,-1.4185 0.06194,-1.3439 -0.505385,-2.4253 1.495344,-4.5769 0,0 4.228426,1.4337 4.228426,1.4337 -0.369148,-1.5234 -1.501265,-2.7594 -2.998416,-3.2735 0,0 3.1e-5,-10e-5 3.1e-5,-10e-5"
         style="opacity:1;fill:#666666;fill-opacity:1;fill-rule:evenodd;stroke:#000000;stroke-width:0.08250017;stroke-linecap:butt;stroke-linejoin:miter;stroke-miterlimit:4;stroke-dasharray:none;stroke-dashoffset:0;stroke-opacity:1"
         inkscape:connector-curvature="0" />
      <path
         id="path4996"
         d="m 33.618136,1021.6366 c -2.407814,-0.8228 -5.017707,0.4346 -5.830372,2.8091 -0.1514,0.4489 -0.230725,0.919 -0.235104,1.3934 0,0 -16.437911,8.2511 -16.437911,8.2511 -0.21557,-0.1158 -0.439976,-0.2145 -0.671089,-0.2951 -2.4082006,-0.8241 -5.0193249,0.4333 -5.8322203,2.8085 -0.1245065,0.3716 -0.1997712,0.758 -0.2239217,1.1495 0,0 3.9452708,-2.0172 3.9452708,-2.0172 0.9422941,1.0935 2.1126582,1.5199 2.3538102,4.6632 0,0 -3.5849777,1.8329 -3.5849777,1.8329 0.1308359,0.061 0.2644221,0.1151 0.4003177,0.1633 2.4078137,0.8228 5.017708,-0.4347 5.830373,-2.8091 0.07617,-0.2249 0.134361,-0.4556 0.174026,-0.6898 0,0 17.219816,-8.6421 17.219816,-8.6421 1.496379,0.4931 3.137262,0.198 4.350671,-0.7824 0,0 -4.184074,-1.4185 -4.184074,-1.4185 0.06194,-1.3439 -0.505385,-2.4253 1.495344,-4.5769 0,0 4.228426,1.4337 4.228426,1.4337 -0.369148,-1.5234 -1.501265,-2.7594 -2.998416,-3.2735 0,0 3.1e-5,-10e-5 3.1e-5,-10e-5"
         style="opacity:1;fill:#666666;fill-opacity:1;fill-rule:evenodd;stroke:#000000;stroke-width:0.08250017;stroke-linecap:butt;stroke-linejoin:miter;stroke-miterlimit:4;stroke-dasharray:none;stroke-dashoffset:0;stroke-opacity:1"
         inkscape:connector-curvature="0" />
      <path
         id="path4998"
         d="m 33.600056,1021.6232 c -2.407814,-0.8228 -5.017707,0.4347 -5.830372,2.8091 -0.1514,0.4489 -0.230726,0.919 -0.235104,1.3934 0,0 -16.437911,8.2511 -16.437911,8.2511 -0.21557,-0.1158 -0.439976,-0.2144 -0.671089,-0.2951 -2.4082007,-0.824 -5.019325,0.4333 -5.8322205,2.8085 -0.1245065,0.3716 -0.1997712,0.758 -0.2239217,1.1495 0,0 3.9452708,-2.0172 3.9452708,-2.0172 0.9422941,1.0935 2.1126584,1.5199 2.3538104,4.6632 0,0 -3.5849779,1.8329 -3.5849779,1.8329 0.1308359,0.061 0.2644221,0.1151 0.4003177,0.1633 2.4078137,0.8228 5.0177072,-0.4347 5.8303732,-2.8091 0.07617,-0.2249 0.134361,-0.4556 0.174026,-0.6898 0,0 17.219816,-8.6421 17.219816,-8.6421 1.496379,0.4931 3.137262,0.198 4.350671,-0.7824 0,0 -4.184074,-1.4185 -4.184074,-1.4185 0.06194,-1.3439 -0.505385,-2.4253 1.495344,-4.5769 0,0 4.228426,1.4337 4.228426,1.4337 -0.369148,-1.5234 -1.501265,-2.7593 -2.998416,-3.2735 0,0 3.1e-5,-10e-5 3.1e-5,-10e-5"
         style="opacity:1;fill:#666666;fill-opacity:1;fill-rule:evenodd;stroke:#000000;stroke-width:0.08250017;stroke-linecap:butt;stroke-linejoin:miter;stroke-miterlimit:4;stroke-dasharray:none;stroke-dashoffset:0;stroke-opacity:1"
         inkscape:connector-curvature="0" />
      <path
         id="path5000"
         d="m 33.581976,1021.6098 c -2.407814,-0.8228 -5.017707,0.4347 -5.830372,2.8091 -0.1514,0.4489 -0.230726,0.9191 -0.235104,1.3934 0,0 -16.437912,8.2511 -16.437912,8.2511 -0.215569,-0.1157 -0.439975,-0.2144 -0.671089,-0.2951 -2.4081998,-0.824 -5.0193241,0.4334 -5.8322196,2.8085 -0.1245065,0.3716 -0.1997712,0.758 -0.2239217,1.1495 0,0 3.9452708,-2.0172 3.9452708,-2.0172 0.9422941,1.0935 2.1126575,1.5199 2.3538095,4.6632 0,0 -3.584977,1.8329 -3.584977,1.8329 0.1308359,0.061 0.2644221,0.1151 0.4003177,0.1633 2.4078137,0.8228 5.0177073,-0.4346 5.8303733,-2.8091 0.07617,-0.2249 0.134361,-0.4555 0.174026,-0.6898 0,0 17.219816,-8.6421 17.219816,-8.6421 1.496378,0.4931 3.137262,0.198 4.350671,-0.7824 0,0 -4.184074,-1.4185 -4.184074,-1.4185 0.06194,-1.3439 -0.505385,-2.4253 1.495344,-4.5769 0,0 4.228426,1.4337 4.228426,1.4337 -0.369148,-1.5233 -1.501265,-2.7593 -2.998416,-3.2735 0,0 3.1e-5,-1e-4 3.1e-5,-1e-4"
         style="opacity:1;fill:#666666;fill-opacity:1;fill-rule:evenodd;stroke:#000000;stroke-width:0.08250017;stroke-linecap:butt;stroke-linejoin:miter;stroke-miterlimit:4;stroke-dasharray:none;stroke-dashoffset:0;stroke-opacity:1"
         inkscape:connector-curvature="0" />
      <path
         id="path5002"
         d="m 33.563895,1021.5964 c -2.407813,-0.8228 -5.017706,0.4347 -5.830372,2.8091 -0.151399,0.4489 -0.230725,0.9191 -0.235104,1.3934 0,0 -16.437911,8.2511 -16.437911,8.2511 -0.215569,-0.1157 -0.439975,-0.2144 -0.671089,-0.2951 -2.4082,-0.824 -5.0193242,0.4334 -5.8322197,2.8085 -0.1245065,0.3716 -0.1997712,0.758 -0.2239217,1.1495 0,0 3.9452708,-2.0172 3.9452708,-2.0172 0.9422941,1.0935 2.1126576,1.5199 2.3538096,4.6632 0,0 -3.5849771,1.8329 -3.5849771,1.8329 0.1308359,0.061 0.2644221,0.1151 0.4003177,0.1633 2.4078136,0.8228 5.0177074,-0.4346 5.8303724,-2.8091 0.07617,-0.2249 0.134362,-0.4555 0.174026,-0.6898 0,0 17.219816,-8.6421 17.219816,-8.6421 1.496379,0.4931 3.137262,0.198 4.350671,-0.7824 0,0 -4.184074,-1.4185 -4.184074,-1.4185 0.06194,-1.3439 -0.505385,-2.4253 1.495344,-4.5769 0,0 4.228426,1.4337 4.228426,1.4337 -0.369147,-1.5233 -1.501264,-2.7593 -2.998416,-3.2735 0,0 3.1e-5,-10e-5 3.1e-5,-10e-5"
         style="opacity:1;fill:#666666;fill-opacity:1;fill-rule:evenodd;stroke:#000000;stroke-width:0.08250017;stroke-linecap:butt;stroke-linejoin:miter;stroke-miterlimit:4;stroke-dasharray:none;stroke-dashoffset:0;stroke-opacity:1"
         inkscape:connector-curvature="0" />
      <path
         id="path5004"
         d="m 33.545815,1021.5831 c -2.407813,-0.8228 -5.017706,0.4346 -5.830372,2.8091 -0.1514,0.4489 -0.230725,0.919 -0.235104,1.3934 0,0 -16.437911,8.2511 -16.437911,8.2511 -0.215569,-0.1158 -0.439975,-0.2145 -0.671089,-0.2951 -2.4082001,-0.8241 -5.0193244,0.4333 -5.8322198,2.8085 -0.1245066,0.3716 -0.1997713,0.7579 -0.2239217,1.1495 0,0 3.9452708,-2.0172 3.9452708,-2.0172 0.9422941,1.0935 2.1126577,1.5199 2.3538097,4.6632 0,0 -3.5849772,1.8329 -3.5849772,1.8329 0.1308358,0.061 0.264422,0.115 0.4003177,0.1633 2.4078136,0.8228 5.0177075,-0.4347 5.8303725,-2.8091 0.07618,-0.225 0.134362,-0.4556 0.174026,-0.6898 0,0 17.219816,-8.6421 17.219816,-8.6421 1.496379,0.493 3.137262,0.1979 4.350671,-0.7824 0,0 -4.184074,-1.4185 -4.184074,-1.4185 0.06194,-1.3439 -0.505385,-2.4253 1.495344,-4.5769 0,0 4.228426,1.4337 4.228426,1.4337 -0.369147,-1.5234 -1.501264,-2.7594 -2.998416,-3.2735 0,0 3.1e-5,-1e-4 3.1e-5,-1e-4"
         style="opacity:1;fill:#666666;fill-opacity:1;fill-rule:evenodd;stroke:#000000;stroke-width:0.08250017;stroke-linecap:butt;stroke-linejoin:miter;stroke-miterlimit:4;stroke-dasharray:none;stroke-dashoffset:0;stroke-opacity:1"
         inkscape:connector-curvature="0" />
      <path
         id="path5006"
         d="m 33.527735,1021.5697 c -2.407813,-0.8228 -5.017707,0.4346 -5.830372,2.8091 -0.1514,0.4489 -0.230725,0.919 -0.235104,1.3934 0,0 -16.437911,8.2511 -16.437911,8.2511 -0.215569,-0.1158 -0.439975,-0.2145 -0.671089,-0.2951 -2.4082002,-0.8241 -5.0193245,0.4333 -5.83222,2.8085 -0.1245065,0.3716 -0.1997712,0.7579 -0.2239217,1.1495 0,0 3.9452708,-2.0172 3.9452708,-2.0172 0.9422941,1.0935 2.1126579,1.5199 2.3538099,4.6632 0,0 -3.5849774,1.8329 -3.5849774,1.8329 0.1308359,0.061 0.2644221,0.115 0.4003177,0.1633 2.4078137,0.8228 5.0177077,-0.4347 5.8303727,-2.8091 0.07617,-0.225 0.134362,-0.4556 0.174026,-0.6898 0,0 17.219816,-8.6421 17.219816,-8.6421 1.496379,0.4931 3.137262,0.198 4.350671,-0.7824 0,0 -4.184074,-1.4185 -4.184074,-1.4185 0.06194,-1.3439 -0.505385,-2.4253 1.495344,-4.5769 0,0 4.228426,1.4337 4.228426,1.4337 -0.369147,-1.5234 -1.501265,-2.7594 -2.998416,-3.2735 0,0 3.1e-5,-10e-5 3.1e-5,-10e-5"
         style="opacity:1;fill:#666666;fill-opacity:1;fill-rule:evenodd;stroke:#000000;stroke-width:0.08250017;stroke-linecap:butt;stroke-linejoin:miter;stroke-miterlimit:4;stroke-dasharray:none;stroke-dashoffset:0;stroke-opacity:1"
         inkscape:connector-curvature="0" />
      <path
         id="path5008"
         d="m 33.509655,1021.5563 c -2.407813,-0.8228 -5.017707,0.4347 -5.830372,2.8091 -0.1514,0.4489 -0.230725,0.919 -0.235104,1.3934 0,0 -16.437911,8.2511 -16.437911,8.2511 -0.215569,-0.1158 -0.439976,-0.2145 -0.671089,-0.2951 -2.4082004,-0.8241 -5.0193246,0.4333 -5.8322201,2.8085 -0.1245065,0.3716 -0.1997712,0.758 -0.2239217,1.1495 0,0 3.9452708,-2.0172 3.9452708,-2.0172 0.9422941,1.0935 2.112658,1.5199 2.35381,4.6632 0,0 -3.5849775,1.8329 -3.5849775,1.8329 0.1308359,0.061 0.2644221,0.1151 0.4003177,0.1633 2.4078136,0.8228 5.0177078,-0.4347 5.8303728,-2.8091 0.07617,-0.2249 0.134362,-0.4556 0.174026,-0.6898 0,0 17.219816,-8.6421 17.219816,-8.6421 1.496379,0.4931 3.137262,0.198 4.350671,-0.7824 0,0 -4.184074,-1.4185 -4.184074,-1.4185 0.06194,-1.3439 -0.505385,-2.4253 1.495344,-4.5769 0,0 4.228426,1.4337 4.228426,1.4337 -0.369148,-1.5234 -1.501265,-2.7594 -2.998416,-3.2735 0,0 3.1e-5,-1e-4 3.1e-5,-1e-4"
         style="opacity:1;fill:#666666;fill-opacity:1;fill-rule:evenodd;stroke:#000000;stroke-width:0.08250017;stroke-linecap:butt;stroke-linejoin:miter;stroke-miterlimit:4;stroke-dasharray:none;stroke-dashoffset:0;stroke-opacity:1"
         inkscape:connector-curvature="0" />
      <path
         id="path5010"
         d="m 33.491575,1021.5429 c -2.407814,-0.8228 -5.017707,0.4347 -5.830372,2.8091 -0.1514,0.4489 -0.230726,0.9191 -0.235104,1.3934 0,0 -16.437911,8.2511 -16.437911,8.2511 -0.215569,-0.1158 -0.439976,-0.2144 -0.671089,-0.2951 -2.4082005,-0.824 -5.0193248,0.4333 -5.8322202,2.8085 -0.1245065,0.3716 -0.1997713,0.758 -0.2239217,1.1495 0,0 3.9452708,-2.0172 3.9452708,-2.0172 0.9422941,1.0935 2.1126581,1.5199 2.3538101,4.6632 0,0 -3.5849776,1.8329 -3.5849776,1.8329 0.1308359,0.061 0.264422,0.1151 0.4003177,0.1633 2.4078136,0.8228 5.0177069,-0.4346 5.8303729,-2.8091 0.07618,-0.2249 0.134361,-0.4556 0.174026,-0.6898 0,0 17.219816,-8.6421 17.219816,-8.6421 1.496379,0.4931 3.137262,0.198 4.350671,-0.7824 0,0 -4.184074,-1.4185 -4.184074,-1.4185 0.06194,-1.3439 -0.505385,-2.4253 1.495344,-4.5769 0,0 4.228426,1.4337 4.228426,1.4337 -0.369148,-1.5234 -1.501265,-2.7593 -2.998416,-3.2735 0,0 3.1e-5,-10e-5 3.1e-5,-10e-5"
         style="opacity:1;fill:#666666;fill-opacity:1;fill-rule:evenodd;stroke:#000000;stroke-width:0.08250017;stroke-linecap:butt;stroke-linejoin:miter;stroke-miterlimit:4;stroke-dasharray:none;stroke-dashoffset:0;stroke-opacity:1"
         inkscape:connector-curvature="0" />
      <path
         id="path5012"
         d="m 33.473495,1021.5295 c -2.407814,-0.8228 -5.017707,0.4347 -5.830372,2.8091 -0.1514,0.4489 -0.230726,0.9191 -0.235104,1.3934 0,0 -16.437911,8.2511 -16.437911,8.2511 -0.21557,-0.1157 -0.439976,-0.2144 -0.671089,-0.2951 -2.4082006,-0.824 -5.0193249,0.4334 -5.8322204,2.8085 -0.1245065,0.3716 -0.1997712,0.758 -0.2239217,1.1495 0,0 3.9452708,-2.0172 3.9452708,-2.0172 0.9422941,1.0935 2.1126583,1.5199 2.3538103,4.6632 0,0 -3.5849778,1.8329 -3.5849778,1.8329 0.1308359,0.061 0.2644221,0.1151 0.4003177,0.1633 2.4078136,0.8228 5.0177071,-0.4346 5.8303731,-2.8091 0.07617,-0.2249 0.134361,-0.4555 0.174026,-0.6898 0,0 17.219816,-8.6421 17.219816,-8.6421 1.496378,0.4931 3.137262,0.198 4.350671,-0.7824 0,0 -4.184074,-1.4185 -4.184074,-1.4185 0.06194,-1.3439 -0.505385,-2.4253 1.495344,-4.5769 0,0 4.228426,1.4337 4.228426,1.4337 -0.369148,-1.5233 -1.501265,-2.7593 -2.998416,-3.2735 0,0 3.1e-5,-10e-5 3.1e-5,-10e-5"
         style="opacity:1;fill:#666666;fill-opacity:1;fill-rule:evenodd;stroke:#000000;stroke-width:0.08250017;stroke-linecap:butt;stroke-linejoin:miter;stroke-miterlimit:4;stroke-dasharray:none;stroke-dashoffset:0;stroke-opacity:1"
         inkscape:connector-curvature="0" />
      <path
         id="path5014"
         d="m 33.455414,1021.5161 c -2.407813,-0.8228 -5.017706,0.4347 -5.830372,2.8091 -0.151399,0.4489 -0.230725,0.9191 -0.235104,1.3934 0,0 -16.437911,8.2511 -16.437911,8.2511 -0.215569,-0.1157 -0.439975,-0.2144 -0.671089,-0.2951 -2.4081998,-0.824 -5.019324,0.4334 -5.8322195,2.8085 -0.1245065,0.3716 -0.1997712,0.758 -0.2239217,1.1495 0,0 3.9452708,-2.0172 3.9452708,-2.0172 0.9422941,1.0935 2.1126574,1.5199 2.3538094,4.6632 0,0 -3.5849769,1.8329 -3.5849769,1.8329 0.1308359,0.061 0.2644221,0.1151 0.4003177,0.1633 2.4078136,0.8228 5.0177072,-0.4346 5.8303722,-2.8091 0.07618,-0.2249 0.134362,-0.4555 0.174026,-0.6898 0,0 17.219816,-8.6421 17.219816,-8.6421 1.496379,0.4931 3.137263,0.198 4.350671,-0.7824 0,0 -4.184074,-1.4185 -4.184074,-1.4185 0.06194,-1.3439 -0.505385,-2.4253 1.495344,-4.5769 0,0 4.228426,1.4337 4.228426,1.4337 -0.369147,-1.5233 -1.501264,-2.7593 -2.998416,-3.2735 0,0 3.1e-5,-10e-5 3.1e-5,-10e-5"
         style="opacity:1;fill:#666666;fill-opacity:1;fill-rule:evenodd;stroke:#000000;stroke-width:0.08250017;stroke-linecap:butt;stroke-linejoin:miter;stroke-miterlimit:4;stroke-dasharray:none;stroke-dashoffset:0;stroke-opacity:1"
         inkscape:connector-curvature="0" />
      <path
         id="path5016"
         d="m 33.437334,1021.5028 c -2.407813,-0.8228 -5.017706,0.4346 -5.830372,2.8091 -0.151399,0.4489 -0.230725,0.919 -0.235104,1.3934 0,0 -16.437911,8.2511 -16.437911,8.2511 -0.215569,-0.1158 -0.439975,-0.2145 -0.671089,-0.2951 -2.4081999,-0.8241 -5.0193242,0.4333 -5.8322196,2.8085 -0.1245065,0.3716 -0.1997713,0.7579 -0.2239217,1.1495 0,0 3.9452708,-2.0172 3.9452708,-2.0172 0.9422941,1.0935 2.1126575,1.5199 2.3538095,4.6632 0,0 -3.584977,1.8329 -3.584977,1.8329 0.1308359,0.061 0.2644221,0.115 0.4003177,0.1633 2.4078136,0.8228 5.0177073,-0.4347 5.8303723,-2.8091 0.07617,-0.225 0.134362,-0.4556 0.174026,-0.6898 0,0 17.219816,-8.6421 17.219816,-8.6421 1.496379,0.493 3.137262,0.198 4.350671,-0.7824 0,0 -4.184074,-1.4185 -4.184074,-1.4185 0.06194,-1.3439 -0.505385,-2.4253 1.495344,-4.5769 0,0 4.228426,1.4337 4.228426,1.4337 -0.369147,-1.5234 -1.501264,-2.7594 -2.998416,-3.2735 0,0 3.1e-5,-10e-5 3.1e-5,-10e-5"
         style="opacity:1;fill:#666666;fill-opacity:1;fill-rule:evenodd;stroke:#000000;stroke-width:0.08250017;stroke-linecap:butt;stroke-linejoin:miter;stroke-miterlimit:4;stroke-dasharray:none;stroke-dashoffset:0;stroke-opacity:1"
         inkscape:connector-curvature="0" />
      <path
         id="path5018"
         d="m 33.419254,1021.4894 c -2.407813,-0.8228 -5.017706,0.4346 -5.830372,2.8091 -0.1514,0.4489 -0.230725,0.919 -0.235104,1.3934 0,0 -16.437911,8.2511 -16.437911,8.2511 -0.215569,-0.1158 -0.439975,-0.2145 -0.671089,-0.2951 -2.4082001,-0.8241 -5.0193243,0.4333 -5.8322198,2.8085 -0.1245065,0.3716 -0.1997712,0.758 -0.2239217,1.1495 0,0 3.9452708,-2.0172 3.9452708,-2.0172 0.9422941,1.0935 2.1126577,1.5199 2.3538097,4.6632 0,0 -3.5849772,1.8329 -3.5849772,1.8329 0.1308359,0.061 0.2644221,0.1151 0.4003177,0.1633 2.4078136,0.8228 5.0177075,-0.4347 5.8303725,-2.8091 0.07617,-0.2249 0.134362,-0.4556 0.174026,-0.6898 0,0 17.219816,-8.6421 17.219816,-8.6421 1.496379,0.4931 3.137262,0.198 4.350671,-0.7824 0,0 -4.184074,-1.4185 -4.184074,-1.4185 0.06194,-1.3439 -0.505385,-2.4253 1.495344,-4.5769 0,0 4.228426,1.4337 4.228426,1.4337 -0.369147,-1.5234 -1.501265,-2.7594 -2.998416,-3.2735 0,0 3.1e-5,-10e-5 3.1e-5,-10e-5"
         style="opacity:1;fill:#666666;fill-opacity:1;fill-rule:evenodd;stroke:#000000;stroke-width:0.08250017;stroke-linecap:butt;stroke-linejoin:miter;stroke-miterlimit:4;stroke-dasharray:none;stroke-dashoffset:0;stroke-opacity:1"
         inkscape:connector-curvature="0" />
      <path
         id="path5020"
         d="m 33.401174,1021.476 c -2.407813,-0.8228 -5.017707,0.4347 -5.830372,2.8091 -0.1514,0.4489 -0.230725,0.919 -0.235104,1.3934 0,0 -16.437911,8.2511 -16.437911,8.2511 -0.215569,-0.1158 -0.439975,-0.2145 -0.671089,-0.2951 -2.4082002,-0.824 -5.0193244,0.4333 -5.8322199,2.8085 -0.1245065,0.3716 -0.1997712,0.758 -0.2239217,1.1495 0,0 3.9452708,-2.0172 3.9452708,-2.0172 0.9422941,1.0935 2.1126578,1.5199 2.3538098,4.6632 0,0 -3.5849773,1.8329 -3.5849773,1.8329 0.1308359,0.061 0.2644221,0.1151 0.4003177,0.1633 2.4078136,0.8228 5.0177076,-0.4347 5.8303726,-2.8091 0.07618,-0.2249 0.134362,-0.4556 0.174026,-0.6898 0,0 17.219816,-8.6421 17.219816,-8.6421 1.496379,0.4931 3.137262,0.198 4.350671,-0.7824 0,0 -4.184074,-1.4185 -4.184074,-1.4185 0.06194,-1.3439 -0.505385,-2.4253 1.495344,-4.5769 0,0 4.228426,1.4337 4.228426,1.4337 -0.369148,-1.5234 -1.501265,-2.7594 -2.998416,-3.2735 0,0 3.1e-5,-10e-5 3.1e-5,-10e-5"
         style="opacity:1;fill:url(#linearGradient4192);fill-opacity:1;fill-rule:evenodd;stroke:#000000;stroke-width:0.08250017;stroke-linecap:butt;stroke-linejoin:miter;stroke-miterlimit:4;stroke-dasharray:none;stroke-dashoffset:0;stroke-opacity:1"
         inkscape:connector-curvature="0" />
    </g>
    <path
       sodipodi:type="star"
       style="opacity:0.98299997;fill:#000000;fill-opacity:1;fill-rule:evenodd;stroke:none;stroke-width:0.30000001;stroke-linecap:butt;stroke-linejoin:round;stroke-miterlimit:4;stroke-dasharray:none;stroke-dashoffset:0;stroke-opacity:0.55276382"
       id="path4231-4"
       sodipodi:sides="4"
       sodipodi:cx="28.281248"
       sodipodi:cy="1024.6525"
       sodipodi:r1="0.013307882"
       sodipodi:r2="1.7213793"
       sodipodi:arg1="-1.3836722"
       sodipodi:arg2="-1.9493606"
       inkscape:flatsided="false"
       inkscape:rounded="0"
       inkscape:randomized="0"
       d="m 28.283724,1024.6394 -0.638675,-1.5864 0.649275,1.6019 1.586423,-0.6386 -1.601975,0.6492 0.638675,1.5865 -0.649274,-1.602 -1.586424,0.6387 z" />
    <path
       style="opacity:0.98299997;fill:#000000;fill-opacity:1;fill-rule:evenodd;stroke:none;stroke-width:0.03;stroke-linecap:butt;stroke-linejoin:round;stroke-miterlimit:4;stroke-dasharray:none;stroke-dashoffset:0;stroke-opacity:0.55276382"
       inkscape:transform-center-x="0.55803573"
       inkscape:transform-center-y="0.13056618"
       d="m 14.108232,1038.4745 -0.828277,-1.4654 -1.397628,-0.1124 1.410201,0.1054 1.54796,-2.2171 -1.549335,2.228 z"
       id="path4257"
       inkscape:connector-curvature="0"
       sodipodi:nodetypes="ccccccc" />
  </g>
</svg>
